<?xml version="1.0" standalone="no"?>
<!DOCTYPE svg PUBLIC "-//W3C//DTD SVG 20010904//EN"
 "http://www.w3.org/TR/2001/REC-SVG-20010904/DTD/svg10.dtd">
<svg version="1.0" xmlns="http://www.w3.org/2000/svg"
 width="25" height="28" viewBox="0 0 900 512"
 preserveAspectRatio="xMidYMid meet">

<g transform="translate(0.000000,512.000000) scale(0.100000,-0.100000)"
fill="#000000" stroke="none">
<path d="M2002 4760 c-67 -41 -62 79 -60 -1744 l3 -1654 25 -27 c53 -57 34
-55 630 -55 l550 0 0 -412 c0 -384 2 -416 19 -455 32 -68 121 -96 183 -55 15
10 234 221 486 470 l460 452 1341 2 1341 3 37 38 38 37 3 1655 c2 1824 7 1704
-60 1745 -33 20 -43 20 -2498 20 -2455 0 -2465 0 -2498 -20z m4788 -1730 l0
-1480 -1285 0 c-1167 0 -1289 -2 -1317 -16 -18 -9 -196 -178 -397 -376 l-366
-359 -5 333 c-5 302 -7 337 -23 362 -37 56 -37 56 -637 56 l-550 0 0 1480 0
1480 2290 0 2290 0 0 -1480z"/>
</g>
</svg>

